<svg width="512" height="512" viewBox="0 0 512 512" fill="none" xmlns="http://www.w3.org/2000/svg">
<rect width="512" height="512" rx="100" fill="#D9F19D"/>
<path d="M126.8 181.1L128.6 179L121.1 182L120.8 181.4L121.4 180.8C121.8 180.4 122.1 180 122.3 179.6C123.1 178.8 123.7 178.1 124.1 177.5L125 176.9C126.6 175.9 128 174.8 129.2 173.6C130.2 172.6 131.7 171.4 133.7 170C135.9 168.4 138.2 166.9 140.6 165.5C143.2 164.1 145.7 162.9 148.1 161.9C150.5 160.7 152.5 159.8 154.1 159.2C162.9 156.4 172.4 152.9 182.6 148.7C192.8 144.3 202 140.7 210.2 137.9C210.6 137.7 211.4 137.1 212.6 136.1C214 135.1 214.9 134.4 215.3 134C216.9 132.4 218.6 131.6 220.4 131.6C221.4 131.6 222.6 132.9 224 135.5C224.4 135.9 224.6 136.4 224.6 137C224.8 137.6 225.1 138.2 225.5 138.8C225.9 139.4 226.1 140 226.1 140.6C226.3 141 226.6 141.4 227 141.8C228.2 143.6 229.5 145.3 230.9 146.9C232.3 148.5 233.5 150.1 234.5 151.7C236.7 154.9 237.8 158.6 237.8 162.8C237.8 163.6 237.7 164.4 237.5 165.2C237.5 166 237.5 166.8 237.5 167.6V169.7L238.4 167.9C238.6 167.7 238.7 167.5 238.7 167.3C238.9 166.9 239.2 166.5 239.6 166.1C240 165.3 240.2 164.9 240.2 164.9C240.4 164.7 240.6 164.3 240.8 163.7V163.1V161.3C240.8 157.9 241.5 154.9 242.9 152.3C244.3 149.7 247 148.4 251 148.4C252.2 148.4 253.3 149 254.3 150.2C255.3 151.2 256 152.2 256.4 153.2C257 154.4 257.8 155.5 258.8 156.5C259.2 156.5 259.6 156.7 260 157.1C262 158.5 263.3 160.9 263.9 164.3L265.4 170.3V170.6H266C267.8 171.4 268.7 172.8 268.7 174.8C268.7 177.2 267.4 178.4 264.8 178.4C264.6 178.6 264.3 178.7 263.9 178.7C263.3 178.7 262.9 178.8 262.7 179C259.7 180.2 256.9 181.8 254.3 183.8C253.5 184.4 252.6 184.7 251.6 184.7C251.2 184.7 250.6 184.5 249.8 184.1C249.8 183.9 249.7 183.8 249.5 183.8C249.5 183.6 249.5 183.4 249.5 183.2L249.2 182.9L248.6 183.2C247.2 183.6 245 185.1 242 187.7C239.2 190.3 236.1 193.3 232.7 196.7C229.5 199.9 226.4 203.1 223.4 206.3C220.4 209.3 218.2 211.6 216.8 213.2C216.6 213.6 215.8 214.5 214.4 215.9C213.2 217.1 212.4 217.7 212 217.7C212.4 216.9 212.6 216.4 212.6 216.2L214.1 211.4L211.4 215.6C211 216.4 210.5 217.2 209.9 218C209.5 218.8 209.1 219.6 208.7 220.4C207.5 222.6 205.8 224.5 203.6 226.1C201.4 227.7 199 228.5 196.4 228.5C196.2 228.5 196.1 228.4 196.1 228.2H195.8C199.8 220.6 204.1 213.4 208.7 206.6C213.5 199.8 218.4 193 223.4 186.2V185.9L222.8 182.9C221.4 181.5 220.2 180.3 219.2 179.3C218.2 178.3 217.3 177.3 216.5 176.3C213.9 173.3 210.8 171.5 207.2 170.9C203.8 170.3 200.2 170 196.4 170C196 170.2 195.6 170.3 195.2 170.3C195.2 170.3 194.6 170.5 193.4 170.9C192.8 171.1 192.2 171.3 191.6 171.5C191 171.5 190.6 171.6 190.4 171.8C188.2 172.4 185.9 173 183.5 173.6C181.1 174 178.8 174.6 176.6 175.4C170 177.6 163.5 180.7 157.1 184.7C150.9 188.7 145.5 193.4 140.9 198.8C138.9 201.4 136.5 203.6 133.7 205.4L133.1 204.5C133.1 203.7 133.2 203.2 133.4 203L133.7 202.7V202.4C133.5 201.2 134 199.7 135.2 197.9C136.6 196.1 138.1 194.3 139.7 192.5C141.5 190.7 143.3 189 145.1 187.4C147.1 185.8 148.6 184.6 149.6 183.8L148.7 182.6L142.7 185.9C142.3 185.9 141.3 186.7 139.7 188.3C138.5 189.5 137.5 190.3 136.7 190.7C135.5 191.9 134 193.4 132.2 195.2C130.6 197 128.9 199 127.1 201.2C125.5 203.2 124.1 205.3 122.9 207.5C121.9 209.7 121.4 211.7 121.4 213.5C121.4 214.9 122.1 216.5 123.5 218.3C125.1 219.9 127.1 221.7 129.5 223.7C131.9 225.5 134.6 227.3 137.6 229.1C140.6 230.9 143.7 232.7 146.9 234.5C150.1 236.1 153.1 237.8 155.9 239.6C158.9 241.2 161.6 242.7 164 244.1C165.4 244.9 166.7 245.7 167.9 246.5C169.1 247.1 170.3 248 171.5 249.2C169.7 249.2 167.4 248.8 164.6 248C162 247 159.9 246.1 158.3 245.3L157.7 246.2C159.9 247.8 162.1 249.1 164.3 250.1C166.5 251.1 168.8 251.9 171.2 252.5C173.4 253.1 175.6 253.7 177.8 254.3C180.2 254.7 182.7 255.2 185.3 255.8C197.1 258.6 208.4 262.3 219.2 266.9C223.2 268.5 226 271.2 227.6 275L232.7 288.5C233.5 290.1 234 291.3 234.2 292.1C234.6 293.7 234.8 294.9 234.8 295.7C234.8 297.7 234.6 299 234.2 299.6C234 300 233.4 300.6 232.4 301.4C231.6 302.2 230.6 303 229.4 303.8C228.4 304.4 227.4 305.1 226.4 305.9C225.6 306.5 224.9 306.9 224.3 307.1C217.9 309.9 211.5 313.1 205.1 316.7C198.9 320.3 193.1 324.4 187.7 329L185.6 330.8L188.3 330.2C188.5 330.2 188.7 330.1 188.9 329.9C189.1 329.9 189.4 329.9 189.8 329.9C190.2 329.9 190.4 329.8 190.4 329.6C190.6 329.6 190.9 329.6 191.3 329.6H191.6C191.8 329.6 191.9 329.7 191.9 329.9C190.9 330.9 189.8 331.9 188.6 332.9C187.6 333.9 186.5 334.9 185.3 335.9C183.3 337.5 181.5 338.9 179.9 340.1C178.3 341.5 177.3 342.4 176.9 342.8C174.9 344.8 172.7 346.5 170.3 347.9C168.1 349.3 165.9 350.9 163.7 352.7C162.7 353.5 161.6 354.2 160.4 354.8C159.4 355.4 158.3 356.2 157.1 357.2C156.1 358.2 155 359.1 153.8 359.9C152.8 360.7 151.8 361.6 150.8 362.6L142.4 371C141.6 371.8 140.5 372.5 139.1 373.1C137.7 373.9 136.5 374.3 135.5 374.3C134.3 374.3 132.7 373.7 130.7 372.5C128.7 371.3 126.7 369.9 124.7 368.3C122.9 366.7 121.2 365 119.6 363.2C118.2 361.4 117.3 359.9 116.9 358.7L115.4 354.5C115.2 354.1 114.9 353.4 114.5 352.4C114.1 351.4 113.7 350.4 113.3 349.4C112.9 348.2 112.5 347.1 112.1 346.1C111.9 345.3 111.8 344.7 111.8 344.3C111.8 343.3 112 342.4 112.4 341.6C113 341 113.5 340.2 113.9 339.2L116.3 337.1C116.9 336.5 117.6 335.8 118.4 335C119.4 334.2 120.4 333.3 121.4 332.3C124.4 329.5 127.4 326.8 130.4 324.2C133.4 321.6 136.6 319.2 140 317C143.6 314.6 146.8 312.2 149.6 309.8C151.2 308.4 152.7 307.2 154.1 306.2C155.5 305 157.1 303.9 158.9 302.9C159.1 302.7 159.3 302.6 159.5 302.6C160.1 302.6 160.4 303.1 160.4 304.1C160.4 304.5 159.7 305.5 158.3 307.1C157.1 308.7 155.6 310.5 153.8 312.5L148.7 317.6L146.9 319.4C146.7 319.6 146.4 319.9 146 320.3C145.8 320.7 145.7 321 145.7 321.2C145.3 321.6 145.1 322 145.1 322.4C144.9 322.6 144.6 323.1 144.2 323.9C144.2 324.1 144.1 324.3 143.9 324.5L143.6 325.4H144.2C144.4 325.4 144.6 325.5 144.8 325.7C145 325.7 145.3 325.7 145.7 325.7C145.9 325.7 146 325.8 146 326C146.2 326 146.5 326 146.9 326C148.7 326 151.4 325.3 155 323.9C158.6 322.5 162.6 320.7 167 318.5C171.4 316.1 175.9 313.6 180.5 311C185.1 308.2 189.3 305.5 193.1 302.9C197.1 300.1 200.3 297.6 202.7 295.4C205.1 293 206.3 291.2 206.3 290C206.3 289 205.1 287.5 202.7 285.5C200.3 283.3 197.5 281.1 194.3 278.9C191.3 276.7 188.3 274.8 185.3 273.2C182.5 271.4 180.6 270.4 179.6 270.2C179 269.6 178.3 269 177.5 268.4C176.7 267.8 175.9 267.3 175.1 266.9L172.4 265.1C172 264.7 171.6 264.4 171.2 264.2C171 264 170.7 263.8 170.3 263.6L170 263C169.6 263 169.4 262.8 169.4 262.4L168.5 261.8V261.5C166.9 260.7 165.4 260.2 164 260C162.8 259.6 161.5 259.2 160.1 258.8C158.7 258.4 157.3 258.1 155.9 257.9C154.5 257.7 153.1 257.4 151.7 257C150.7 256.6 149.6 256.3 148.4 256.1C147.4 255.7 146.4 255.3 145.4 254.9C142 253.3 139.2 252.4 137 252.2C135 252 132.1 251.9 128.3 251.9C126.1 251.9 124.6 250.3 123.8 247.1V246.8H123.2C122 246.2 120.2 245 117.8 243.2C115.6 241.4 114.5 240 114.5 239C114.5 235.2 114.1 232.3 113.3 230.3C112.5 228.3 111.3 225.6 109.7 222.2C108.7 220.2 108.2 217.8 108.2 215C108.2 211.6 108.7 208.4 109.7 205.4C110.9 202.4 112.4 199.5 114.2 196.7C116 193.9 118 191.3 120.2 188.9C122.4 186.3 124.6 183.7 126.8 181.1ZM243.23 244.1V243.8L243.83 240.8C244.23 240 244.43 239.4 244.43 239C244.83 238.2 245.23 237.5 245.63 236.9C246.03 236.1 246.43 235.3 246.83 234.5C248.63 229.5 252.13 227 257.33 227C259.13 227 261.13 227.1 263.33 227.3C265.53 227.3 267.53 227.6 269.33 228.2C271.13 228.8 272.63 229.7 273.83 230.9C275.23 231.9 275.93 233.5 275.93 235.7C275.93 237.1 275.23 239 273.83 241.4C273.23 242.4 272.53 243.4 271.73 244.4C271.13 245.2 270.63 245.9 270.23 246.5C269.43 247.7 268.63 249.7 267.83 252.5C267.23 255.1 266.73 257.9 266.33 260.9C265.93 263.7 265.63 266.5 265.43 269.3C265.23 272.1 265.13 274.3 265.13 275.9C265.13 277.5 265.23 278.9 265.43 280.1C265.83 281.3 266.03 282.7 266.03 284.3H267.23C268.03 280.7 268.73 277.8 269.33 275.6C270.13 273.2 271.13 270.3 272.33 266.9C272.93 265.3 273.33 264.1 273.53 263.3C273.93 262.3 274.23 261.4 274.43 260.6C274.63 260 274.73 259.2 274.73 258.2C274.93 257.2 275.03 255.8 275.03 254C275.03 252.6 275.53 251.1 276.53 249.5C277.53 247.7 278.73 246.1 280.13 244.7C281.53 243.1 283.03 241.8 284.63 240.8C286.43 239.6 288.03 239 289.43 239C291.03 239 292.23 239.9 293.03 241.7C293.43 242.5 293.83 243.5 294.23 244.7C294.83 245.7 295.43 246.7 296.03 247.7C297.43 250.1 299.33 252.3 301.73 254.3C304.13 256.3 307.83 257.3 312.83 257.3C313.83 257.3 314.63 257.2 315.23 257C316.03 256.8 316.83 256.7 317.63 256.7C317.83 256.7 318.13 256.8 318.53 257C318.93 257 319.33 257 319.73 257C319.93 257.2 320.03 257.3 320.03 257.3C320.23 257.3 320.43 257.5 320.63 257.9V258.2C320.63 258.8 320.33 259.4 319.73 260H319.43V260.3C319.43 261.1 319.03 262.3 318.23 263.9C317.43 265.5 316.43 267.1 315.23 268.7C314.03 270.3 312.63 271.7 311.03 272.9C309.43 274.1 307.93 274.7 306.53 274.7C304.33 274.7 301.93 273.5 299.33 271.1C296.93 268.7 295.03 266.7 293.63 265.1L293.33 264.8C293.13 264.8 292.93 264.8 292.73 264.8C292.53 264.6 292.23 264.5 291.83 264.5C291.43 264.3 291.13 264.2 290.93 264.2C290.73 264.2 290.43 264.1 290.03 263.9C287.83 263.9 285.93 264.9 284.33 266.9C282.93 268.7 281.73 270.7 280.73 272.9C280.33 274.1 279.83 275.3 279.23 276.5C278.83 277.7 278.43 278.8 278.03 279.8C277.23 282.2 276.33 284 275.33 285.2V284.6C275.13 284.2 275.03 284 275.03 284L274.43 283.1L273.83 284C273.63 284.6 273.33 285.5 272.93 286.7C272.53 287.9 272.13 289.3 271.73 290.9C271.53 292.3 271.33 293.7 271.13 295.1C271.13 296.3 271.13 297.2 271.13 297.8L272.63 311L273.53 307.4C273.73 307 273.73 306.6 273.53 306.2C273.53 305.6 273.63 305.1 273.83 304.7C274.23 303.5 274.53 302.7 274.73 302.3H275.03V300.2L275.93 299.3C275.93 299.1 276.13 299 276.53 299C276.53 299.2 276.73 299.7 277.13 300.5C277.13 300.7 277.13 300.8 277.13 300.8C277.33 300.8 277.43 301 277.43 301.4C277.43 304.8 277.53 308.1 277.73 311.3C277.93 314.3 278.33 317.5 278.93 320.9C279.33 322.9 279.53 324.6 279.53 326C279.53 327 279.13 327.8 278.33 328.4C277.53 329 276.53 329.4 275.33 329.6C274.33 330 273.23 330.2 272.03 330.2C270.83 330.2 269.93 330.2 269.33 330.2C267.33 330.2 265.33 330.1 263.33 329.9C261.53 329.7 259.73 329.5 257.93 329.3C255.73 329.1 254.03 328.7 252.83 328.1C251.63 327.3 250.53 326 249.53 324.2C249.33 323.8 249.23 323.6 249.23 323.6C249.23 323.4 249.13 323.3 248.93 323.3C248.93 323.3 248.93 323.2 248.93 323C248.93 322.4 249.03 321.5 249.23 320.3C249.63 319.1 250.03 318.3 250.43 317.9L250.73 317.6C250.93 316.8 251.13 316.1 251.33 315.5C251.53 314.9 251.83 314.2 252.23 313.4C252.83 311.8 253.13 310.2 253.13 308.6C253.13 305.8 253.03 302.9 252.83 299.9C252.83 296.9 252.83 293.9 252.83 290.9C252.83 290.1 252.93 289.4 253.13 288.8C253.53 288 253.83 287.5 254.03 287.3C254.83 287.3 255.43 288.1 255.83 289.7C256.23 291.1 256.43 292.1 256.43 292.7C256.43 293.9 256.43 295.2 256.43 296.6C256.63 297.8 256.93 299 257.33 300.2L258.23 302.6L258.83 292.7C259.03 290.5 259.03 288.4 258.83 286.4C258.63 284.4 258.53 282.3 258.53 280.1C258.53 276.1 258.73 272.3 259.13 268.7C259.73 264.9 260.03 261.1 260.03 257.3V253.7L258.83 257C258.43 257.6 258.13 258.2 257.93 258.8C257.73 259.2 257.53 259.6 257.33 260C256.73 261.8 256.13 263.6 255.53 265.4C255.13 267.2 254.73 269 254.33 270.8C254.33 271.2 253.93 272.1 253.13 273.5C252.53 274.9 252.03 275.6 251.63 275.6C251.63 275.6 251.33 275.3 250.73 274.7C249.33 271.7 248.63 268.3 248.63 264.5C248.43 262.1 248.63 259.7 249.23 257.3C249.83 254.9 250.13 252.4 250.13 249.8C249.93 249.4 249.83 249.2 249.83 249.2C249.83 248.6 249.73 248.2 249.53 248C249.13 246.8 248.93 246.2 248.93 246.2V245.3L242.03 248L241.13 247.1C241.33 246.3 242.03 245.3 243.23 244.1ZM322.653 334.4C322.653 332.6 322.753 330.8 322.953 329C323.353 327.4 323.553 325.7 323.553 323.9C323.553 322.5 323.453 321.1 323.253 319.7C323.253 318.3 323.253 316.9 323.253 315.5C323.253 314.9 323.253 313.8 323.253 312.2C323.453 310.6 323.653 309 323.853 307.4C324.253 305.6 324.653 304 325.053 302.6C325.653 301.2 326.353 300.5 327.153 300.5C328.753 300.5 329.653 301.3 329.853 302.9C330.253 304.5 330.453 305.9 330.453 307.1V308.9C330.453 309.3 330.353 309.7 330.153 310.1C330.153 310.3 330.153 310.6 330.153 311L331.053 317.9L331.953 315.2C332.953 312.2 333.653 309.1 334.053 305.9C334.453 302.7 334.653 299.5 334.653 296.3V296L334.353 295.7C331.553 293.3 329.053 290.8 326.853 288.2C324.653 285.6 323.553 282.4 323.553 278.6C323.553 276 323.753 274 324.153 272.6C324.553 271.2 325.153 270 325.953 269C326.753 267.8 327.653 266.7 328.653 265.7C329.853 264.5 331.053 263 332.253 261.2C333.053 260 333.653 259 334.053 258.2C334.453 257.8 334.653 257.4 334.653 257C334.853 256.4 335.153 255.9 335.553 255.5C335.953 255.1 336.253 253.3 336.453 250.1C336.853 246.7 337.253 242.7 337.653 238.1C338.053 233.3 338.353 228.2 338.553 222.8C338.953 217.2 339.253 212 339.453 207.2C339.653 202.2 339.853 197.9 340.053 194.3C340.253 190.5 340.353 188 340.353 186.8H339.153C338.353 190.4 337.753 194 337.353 197.6C337.353 198.4 337.053 200.7 336.453 204.5C336.053 208.3 335.553 212.4 334.953 216.8C334.553 221.2 334.153 225.3 333.753 229.1C333.353 232.7 333.053 234.7 332.853 235.1C332.053 237.3 330.853 238.4 329.253 238.4C329.053 238.2 328.953 237.8 328.953 237.2C328.753 236.8 328.653 236.5 328.653 236.3C328.853 236.1 328.953 235.8 328.953 235.4C328.953 228.6 329.053 221.8 329.253 215C329.653 208.2 330.053 201.4 330.453 194.6C330.853 187.4 331.353 180.3 331.953 173.3C332.553 166.1 332.853 158.8 332.853 151.4C332.853 148.8 332.753 146.2 332.553 143.6C332.553 141 332.553 138.4 332.553 135.8C332.553 134.2 332.753 132.8 333.153 131.6C333.753 130.2 334.853 129.5 336.453 129.5C337.453 129.5 338.353 129.8 339.153 130.4C340.153 130.8 341.153 131.4 342.153 132.2C342.553 132.6 342.953 133 343.353 133.4C343.753 133.8 344.153 134.2 344.553 134.6L347.253 136.4L353.253 140C355.453 141.4 357.453 143.9 359.253 147.5C361.053 150.9 361.953 153.9 361.953 156.5C361.953 158.7 361.653 160.9 361.053 163.1C360.653 165.1 360.053 167.2 359.253 169.4C356.453 177.6 354.453 185.6 353.253 193.4C352.853 195.4 352.553 197.4 352.353 199.4C352.153 201.2 351.853 203 351.453 204.8C351.253 206.2 350.753 207.8 349.953 209.6C349.353 210.8 348.953 212.6 348.753 215C348.553 217.2 348.353 219.6 348.153 222.2C347.953 224.8 347.853 227.3 347.853 229.7C347.853 231.9 347.853 233.8 347.853 235.4C348.253 236.2 348.453 236.6 348.453 236.6C348.453 237 348.653 237.6 349.053 238.4C349.453 239.2 349.753 239.9 349.953 240.5C350.353 241.1 350.553 241.5 350.553 241.7L350.853 242.3L351.453 242C353.053 241.2 354.553 240.4 355.953 239.6C357.553 238.8 359.253 238.4 361.053 238.4C362.053 238.4 362.553 238.9 362.553 239.9C362.553 240.9 362.053 241.9 361.053 242.9L361.953 243.8C364.153 241.4 367.053 238.8 370.653 236C374.453 233.2 377.953 231.8 381.153 231.8C387.753 231.8 392.453 234.2 395.253 239C398.053 243.6 399.453 249 399.453 255.2C399.453 260.6 398.653 266.4 397.053 272.6C395.453 278.6 393.153 284.5 390.153 290.3C387.353 295.9 383.953 301.1 379.953 305.9C376.153 310.7 371.853 314.7 367.053 317.9C365.253 319.1 363.253 320.2 361.053 321.2C359.053 322.2 356.853 323.4 354.453 324.8C353.253 325.6 352.153 326.8 351.153 328.4C350.353 330 349.953 331.4 349.953 332.6C349.953 334.2 350.053 335.8 350.253 337.4C350.453 339 350.553 340.6 350.553 342.2C350.553 343.8 350.253 345.2 349.653 346.4C349.253 347.6 348.153 348.2 346.353 348.2C345.153 348.2 343.453 348 341.253 347.6C339.053 347.4 336.753 347.1 334.353 346.7C332.153 346.3 330.153 345.8 328.353 345.2C326.553 344.6 325.453 344 325.053 343.4L324.753 343.1C323.753 342.3 323.153 340.9 322.953 338.9C322.753 336.9 322.653 335.4 322.653 334.4ZM348.453 302.6C348.453 303.6 348.753 305.1 349.353 307.1C349.953 308.9 351.253 309.8 353.253 309.8C354.853 309.8 356.953 308.7 359.553 306.5C362.353 304.1 365.053 301.4 367.653 298.4C370.453 295.4 372.753 292.4 374.553 289.4C376.553 286.4 377.553 284.2 377.553 282.8V281.3L376.653 282.2C375.853 283 374.653 284.1 373.053 285.5C371.453 286.9 370.153 287.8 369.153 288.2C368.353 288.2 367.953 287.5 367.953 286.1C367.953 286.1 368.153 285.9 368.553 285.5C368.953 284.7 369.153 284.2 369.153 284C372.953 278.4 375.953 272.8 378.153 267.2C380.553 261.4 381.753 255.1 381.753 248.3V247.7H381.153C380.153 247.7 378.353 249.1 375.753 251.9C373.153 254.5 370.453 257.6 367.653 261.2C364.853 264.6 362.253 268 359.853 271.4C357.653 274.6 356.253 276.7 355.653 277.7C353.453 281.7 351.653 285.7 350.253 289.7C349.053 293.7 348.453 298 348.453 302.6Z" fill="#202126"/>
</svg>
