<svg width="512" height="512" viewBox="0 0 512 512" fill="none" xmlns="http://www.w3.org/2000/svg">
<g clip-path="url(#clip0_2164_35)">
<rect width="512" height="512" rx="100" fill="#D9EFA2"/>
<path d="M165.5 333C165.5 339 167 344.333 170 349C173.167 353.667 177 357.75 181.5 361.25C186 364.75 192.083 369 199.75 374C208.083 379.333 214.75 384 219.75 388C224.75 392 229 396.917 232.5 402.75C236 408.417 237.75 415 237.75 422.5C237.75 431.167 235.417 438.917 230.75 445.75C226.083 452.417 219.583 457.667 211.25 461.5C203.083 465.167 193.917 467 183.75 467C176.25 467 168.417 466 160.25 464C152.083 461.833 146.583 459.5 143.75 457C142.917 456.333 142.25 455.75 141.75 455.25C141.417 454.583 141.25 453.583 141.25 452.25L140.5 412.5V412.25C140.5 411.583 140.917 411.25 141.75 411.25C142.583 411.083 143.083 411.333 143.25 412C148.25 422.167 152.583 430.417 156.25 436.75C160.083 443.083 164.833 448.667 170.5 453.5C176.333 458.333 182.917 460.75 190.25 460.75C196.917 460.75 202.417 459 206.75 455.5C211.083 451.833 213.25 445.667 213.25 437C213.25 429.667 211.583 423.25 208.25 417.75C205.083 412.25 201.167 407.583 196.5 403.75C191.833 399.917 185.417 395.333 177.25 390C169.25 384.833 163 380.417 158.5 376.75C154.167 373.083 150.417 368.667 147.25 363.5C144.083 358.333 142.5 352.25 142.5 345.25C142.5 336.417 145 329 150 323C155.167 316.833 161.75 312.333 169.75 309.5C177.75 306.5 186.167 305 195 305C200.833 305 206.75 305.583 212.75 306.75C218.75 307.75 223.583 309 227.25 310.5C228.75 311.167 229.75 311.917 230.25 312.75C230.75 313.417 231 314.333 231 315.5V352.25C231 352.75 230.583 353.167 229.75 353.5C228.917 353.667 228.417 353.5 228.25 353L226.25 348.25C222.083 337.75 217.167 328.833 211.5 321.5C206 314.167 198.25 310.5 188.25 310.5C181.583 310.5 176.083 312.417 171.75 316.25C167.583 320.083 165.5 325.667 165.5 333ZM325.412 365C329.245 365 332.912 366.417 336.412 369.25C340.079 371.917 341.912 375.167 341.912 379C341.912 382.5 340.829 385.417 338.662 387.75C336.495 389.917 333.662 391 330.162 391C327.662 391 325.579 390.5 323.912 389.5C322.412 388.5 320.829 387 319.162 385C317.662 383.333 316.329 382.167 315.162 381.5C314.162 380.667 312.912 380.25 311.412 380.25C309.745 380.25 307.912 380.917 305.912 382.25C304.079 383.417 301.162 386 297.162 390V443.75C297.162 450.417 298.745 455 301.912 457.5C305.079 459.833 310.912 461 319.412 461C320.079 461 320.412 461.5 320.412 462.5C320.412 463.5 320.079 464 319.412 464C313.579 464 308.995 463.917 305.662 463.75L285.412 463.5L270.662 463.75C268.162 463.917 264.745 464 260.412 464C259.912 464 259.662 463.5 259.662 462.5C259.662 461.5 259.912 461 260.412 461C265.579 461 269.079 459.833 270.912 457.5C272.745 455 273.662 450.417 273.662 443.75V396.75C273.662 391.583 272.995 387.833 271.662 385.5C270.495 383 268.579 381.75 265.912 381.75C263.079 381.75 259.079 382.917 253.912 385.25H253.412C252.912 385.25 252.495 384.833 252.162 384C251.995 383.167 252.079 382.667 252.412 382.5L287.162 365.5C288.162 365.167 288.745 365 288.912 365C290.745 365 292.412 366.75 293.912 370.25C295.579 373.583 296.579 378.167 296.912 384C303.745 377 309.329 372.083 313.662 369.25C318.162 366.417 322.079 365 325.412 365ZM424.889 364.25C432.389 364.25 439.305 366 445.639 369.5C451.972 373 456.972 378.25 460.639 385.25C464.472 392.25 466.389 400.75 466.389 410.75C466.389 422.75 463.805 433 458.639 441.5C453.639 450 446.972 456.417 438.639 460.75C430.472 465.083 421.722 467.25 412.389 467.25C406.055 467.25 399.805 466.25 393.639 464.25C387.639 462.25 382.139 459.333 377.139 455.5L354.389 465.75H353.889C353.222 465.75 352.805 465.417 352.639 464.75C352.472 464.083 352.722 463.667 353.389 463.5C357.389 461.167 360.389 458 362.389 454C364.555 449.833 365.639 444.583 365.639 438.25V316.75C365.639 310.917 365.055 306.75 363.889 304.25C362.889 301.75 360.972 300.5 358.139 300.5C355.972 300.5 352.889 301.417 348.889 303.25H348.639C347.972 303.25 347.472 302.833 347.139 302C346.805 301 346.805 300.417 347.139 300.25L383.639 283L384.889 282.75C385.722 282.75 386.555 283.167 387.389 284C388.389 284.667 388.889 285.333 388.889 286V381C394.389 375.833 399.972 371.75 405.639 368.75C411.305 365.75 417.722 364.25 424.889 364.25ZM418.389 462.25C425.555 462.25 431.055 458.583 434.889 451.25C438.722 443.917 440.639 433.667 440.639 420.5C440.639 406 438.222 395.25 433.389 388.25C428.555 381.083 421.805 377.5 413.139 377.5C405.305 377.5 397.222 380.333 388.889 386V422.75C388.889 431.917 390.472 439.5 393.639 445.5C396.805 451.333 400.639 455.583 405.139 458.25C409.639 460.917 414.055 462.25 418.389 462.25Z" fill="#202126"/>
</g>
<defs>
<clipPath id="clip0_2164_35">
<rect width="512" height="512" rx="100" fill="white"/>
</clipPath>
</defs>
</svg>
