<svg width="25" height="27" viewBox="0 0 25 27" fill="none" xmlns="http://www.w3.org/2000/svg">
<path fill-rule="evenodd" clip-rule="evenodd" d="M5.20545 19.3436C4.7617 18.7827 4.22264 17.6358 3.26327 16.2436C2.71952 15.4561 1.37108 13.9733 0.969517 13.2202C0.621079 12.5545 0.658579 12.2561 0.741392 11.7045C0.888267 10.7233 1.89452 9.95922 2.96795 10.0623C3.77889 10.1389 4.46639 10.6748 5.08514 11.1811C5.45858 11.4858 5.91795 12.078 6.19452 12.4123C6.4492 12.7186 6.5117 12.8452 6.78358 13.2077C7.14295 13.6873 7.25545 13.9248 7.11795 13.3967C7.00702 12.6217 6.82577 11.2983 6.56327 10.128C6.36327 9.24047 6.31483 9.10141 6.1242 8.42016C5.92264 7.69516 5.81952 7.18735 5.63045 6.4186C5.4992 5.87485 5.26327 4.76391 5.1992 4.13891C5.11014 3.28422 5.06327 1.89047 5.6117 1.24985C6.04139 0.748285 7.02733 0.596722 7.63827 0.906097C8.43827 1.31078 8.89295 2.47328 9.10077 2.93735C9.4742 3.77172 9.70545 4.73578 9.90702 6.00141C10.1633 7.61235 10.6351 9.84828 10.6508 10.3186C10.6883 9.74203 10.5445 8.52797 10.6445 7.97485C10.7351 7.47328 11.157 6.89047 11.6851 6.73266C12.132 6.59985 12.6555 6.55141 13.1164 6.64672C13.6055 6.74672 14.1211 7.09672 14.3133 7.42641C14.8789 8.40141 14.8898 10.3936 14.9133 10.2873C15.0476 9.69985 15.0242 8.36703 15.357 7.81235C15.5758 7.44672 16.1336 7.11703 16.4305 7.06391C16.8898 6.98266 17.4539 6.95766 17.9367 7.05141C18.3258 7.12797 18.8523 7.59047 18.9945 7.81235C19.3351 8.34985 19.5289 9.87016 19.5867 10.403C19.6101 10.6233 19.7023 9.79047 20.0445 9.25297C20.6789 8.25453 22.9242 8.06079 23.0101 10.2514C23.0492 11.2733 23.0414 11.2264 23.0414 11.9139C23.0414 12.7217 23.0226 13.2077 22.9789 13.792C22.9305 14.417 22.7961 15.8295 22.6008 16.5139C22.4664 16.9842 22.0211 18.042 21.582 18.6764C21.582 18.6764 19.9039 20.6295 19.7211 21.5092C19.5367 22.3873 19.5976 22.3936 19.5617 23.017C19.5258 23.6389 19.7508 24.4577 19.7508 24.4577C19.7508 24.4577 18.4976 24.6202 17.8226 24.5123C17.2117 24.4139 16.4555 23.1983 16.2601 22.8264C15.9914 22.3139 15.418 22.4123 15.1945 22.7905C14.843 23.3889 14.0867 24.4623 13.5523 24.5295C12.5086 24.6608 10.343 24.578 8.64764 24.5608C8.64764 24.5608 8.9367 22.9811 8.29295 22.4389C7.81639 22.0342 6.99608 21.2139 6.50545 20.7827L5.20545 19.3436Z" fill="#D9EFA2"/>
<path fill-rule="evenodd" clip-rule="evenodd" d="M5.20545 19.3436C4.7617 18.7827 4.22264 17.6358 3.26327 16.2436C2.71952 15.4561 1.37108 13.9733 0.969517 13.2202C0.621079 12.5545 0.658579 12.2561 0.741392 11.7045C0.888267 10.7233 1.89452 9.95922 2.96795 10.0623C3.77889 10.1389 4.46639 10.6748 5.08514 11.1811C5.45858 11.4858 5.91795 12.078 6.19452 12.4123C6.4492 12.7186 6.5117 12.8452 6.78358 13.2077C7.14295 13.6873 7.25545 13.9248 7.11795 13.3967C7.00702 12.6217 6.82577 11.2983 6.56327 10.128C6.36327 9.24047 6.31483 9.10141 6.1242 8.42016C5.92264 7.69516 5.81952 7.18735 5.63045 6.4186C5.4992 5.87485 5.26327 4.76391 5.1992 4.13891C5.11014 3.28422 5.06327 1.89047 5.6117 1.24985C6.04139 0.748285 7.02733 0.596722 7.63827 0.906097C8.43827 1.31078 8.89295 2.47328 9.10077 2.93735C9.4742 3.77172 9.70545 4.73578 9.90702 6.00141C10.1633 7.61235 10.6351 9.84828 10.6508 10.3186C10.6883 9.74203 10.5445 8.52797 10.6445 7.97485C10.7351 7.47328 11.157 6.89047 11.6851 6.73266C12.132 6.59985 12.6555 6.55141 13.1164 6.64672C13.6055 6.74672 14.1211 7.09672 14.3133 7.42641C14.8789 8.40141 14.8898 10.3936 14.9133 10.2873C15.0476 9.69985 15.0242 8.36703 15.357 7.81235C15.5758 7.44672 16.1336 7.11703 16.4305 7.06391C16.8898 6.98266 17.4539 6.95766 17.9367 7.05141C18.3258 7.12797 18.8523 7.59047 18.9945 7.81235C19.3351 8.34985 19.5289 9.87016 19.5867 10.403C19.6101 10.6233 19.7023 9.79047 20.0445 9.25297C20.6789 8.25453 22.9242 8.06079 23.0101 10.2514C23.0492 11.2733 23.0414 11.2264 23.0414 11.9139C23.0414 12.7217 23.0226 13.2077 22.9789 13.792C22.9305 14.417 22.7961 15.8295 22.6008 16.5139C22.4664 16.9842 22.0211 18.042 21.582 18.6764C21.582 18.6764 19.9039 20.6295 19.7211 21.5092C19.5367 22.3873 19.5976 22.3936 19.5617 23.017C19.5258 23.6389 19.7508 24.4577 19.7508 24.4577C19.7508 24.4577 18.4976 24.6202 17.8226 24.5123C17.2117 24.4139 16.4555 23.1983 16.2601 22.8264C15.9914 22.3139 15.418 22.4123 15.1945 22.7905C14.843 23.3889 14.0867 24.4623 13.5523 24.5295C12.5086 24.6608 10.343 24.578 8.64764 24.5608C8.64764 24.5608 8.9367 22.9811 8.29295 22.4389C7.81639 22.0342 6.99608 21.2139 6.50545 20.7827L5.20545 19.3436Z" stroke="black" stroke-width="0.75" stroke-linecap="round" stroke-linejoin="round"/>
<path d="M18.0725 19.8975V14.4928" stroke="black" stroke-width="0.75" stroke-linecap="round"/>
<path d="M14.9231 19.9158L14.8981 14.4892" stroke="black" stroke-width="0.75" stroke-linecap="round"/>
<path d="M11.8042 14.5386L11.837 19.8917" stroke="black" stroke-width="0.75" stroke-linecap="round"/>
</svg>
