<svg width="853" height="95" viewBox="0 0 853 95" fill="none" xmlns="http://www.w3.org/2000/svg">
<path d="M10.56 27.976C10.56 31.304 11.3707 34.2053 12.992 36.68C14.6133 39.1547 16.576 41.2453 18.88 42.952C21.2693 44.5733 24.512 46.6213 28.608 49.096C33.1307 51.8267 36.5867 54.088 38.976 55.88C41.4507 57.672 43.5413 59.976 45.248 62.792C47.04 65.5227 47.936 68.808 47.936 72.648C47.936 76.744 46.912 80.456 44.864 83.784C42.816 87.112 39.7867 89.7573 35.776 91.72C31.8507 93.5973 27.1147 94.536 21.568 94.536C14.9973 94.536 8.98133 93.0427 3.52 90.056C3.09333 89.8 2.79467 89.5013 2.624 89.16C2.53867 88.8187 2.45333 88.3067 2.368 87.624L0.704 70.216C0.618667 69.8747 0.789334 69.6613 1.216 69.576C1.728 69.4907 2.02667 69.6187 2.112 69.96C3.47733 76.104 5.99467 81.3947 9.664 85.832C13.4187 90.2693 18.368 92.488 24.512 92.488C28.7787 92.488 32.3627 91.336 35.264 89.032C38.2507 86.6427 39.744 82.888 39.744 77.768C39.744 73.928 38.8907 70.6 37.184 67.784C35.4773 64.968 33.3867 62.664 30.912 60.872C28.5227 58.9947 25.2373 56.8187 21.056 54.344C16.96 51.8693 13.7173 49.736 11.328 47.944C9.024 46.152 7.06133 43.8907 5.44 41.16C3.81867 38.4293 3.008 35.2293 3.008 31.56C3.008 27.2933 4.11733 23.6667 6.336 20.68C8.64 17.608 11.584 15.3467 15.168 13.896C18.8373 12.36 22.72 11.592 26.816 11.592C31.8507 11.592 36.8427 12.616 41.792 14.664C43.072 15.0907 43.712 15.816 43.712 16.84L44.608 31.56C44.608 31.9013 44.3947 32.072 43.968 32.072C43.5413 32.072 43.2853 31.9013 43.2 31.56C42.5173 27.1227 40.6827 23.0267 37.696 19.272C34.7093 15.432 30.4 13.512 24.768 13.512C19.9893 13.512 16.4053 14.92 14.016 17.736C11.712 20.4667 10.56 23.88 10.56 27.976ZM107.995 86.088C108.336 86.088 108.55 86.3013 108.635 86.728C108.72 87.0693 108.592 87.3253 108.251 87.496L95.067 93.768C94.7257 93.9387 94.3843 94.024 94.043 94.024C92.9337 94.024 91.9523 93.2987 91.099 91.848C90.2457 90.312 89.691 88.264 89.435 85.704L82.779 90.056C80.6457 91.4213 78.7683 92.4027 77.147 93C75.5257 93.5973 73.819 93.896 72.027 93.896C68.8697 93.896 66.395 93.0853 64.603 91.464C62.8963 89.7573 62.043 87.624 62.043 85.064C62.043 82.504 63.067 80.2853 65.115 78.408C67.163 76.5307 70.5337 74.7387 75.227 73.032L89.307 67.784V59.08C89.307 49.5227 86.619 44.744 81.243 44.744C78.3417 44.744 76.123 45.7253 74.587 47.688C73.1363 49.5653 72.155 51.7413 71.643 54.216C71.387 55.752 70.9177 57.032 70.235 58.056C69.5523 58.9947 68.4003 59.464 66.779 59.464C65.4137 59.464 64.347 59.08 63.579 58.312C62.8963 57.544 62.555 56.648 62.555 55.624C62.555 53.576 63.8777 51.528 66.523 49.48C69.1683 47.432 72.3257 45.7253 75.995 44.36C79.6643 42.9947 82.9497 42.312 85.851 42.312C89.3497 42.312 91.995 43.4213 93.787 45.64C95.579 47.8587 96.475 51.0587 96.475 55.24V79.176C96.475 82.1627 96.859 84.3387 97.627 85.704C98.395 87.0693 99.675 87.752 101.467 87.752C103.088 87.752 105.179 87.1973 107.739 86.088H107.995ZM89.307 83.912V83.272V69.576L77.403 74.184C75.0137 75.1227 73.2643 76.232 72.155 77.512C71.131 78.7067 70.619 80.1573 70.619 81.864C70.619 83.912 71.259 85.6613 72.539 87.112C73.9043 88.4773 75.6537 89.16 77.787 89.16C79.4937 89.16 81.5417 88.4773 83.931 87.112L89.307 83.912ZM170.324 91.464C170.58 91.464 170.708 91.72 170.708 92.232C170.708 92.744 170.58 93 170.324 93C168.361 93 166.783 92.9573 165.588 92.872L158.676 92.744L149.46 92.872C148.095 92.9573 146.26 93 143.956 93C143.785 93 143.7 92.744 143.7 92.232C143.7 91.72 143.785 91.464 143.956 91.464C148.223 91.464 150.356 90.6533 150.356 89.032C150.356 88.264 149.972 87.3253 149.204 86.216L133.46 64.84L127.06 69.832V82.632C127.06 85.1067 127.273 86.984 127.7 88.264C128.127 89.4587 128.895 90.312 130.004 90.824C131.113 91.2507 132.82 91.464 135.124 91.464C135.38 91.464 135.508 91.72 135.508 92.232C135.508 92.744 135.38 93 135.124 93C133.161 93 131.583 92.9573 130.388 92.872L123.476 92.744L116.564 92.872C115.369 92.9573 113.791 93 111.828 93C111.572 93 111.444 92.744 111.444 92.232C111.444 91.72 111.572 91.464 111.828 91.464C114.132 91.464 115.839 91.2507 116.948 90.824C118.057 90.312 118.825 89.4587 119.252 88.264C119.679 86.984 119.892 85.1067 119.892 82.632V16.456C119.892 13.384 119.593 11.1653 118.996 9.8C118.399 8.43466 117.332 7.752 115.796 7.752C114.516 7.752 112.553 8.34933 109.908 9.544H109.652C109.396 9.544 109.183 9.33067 109.012 8.904C108.841 8.47733 108.927 8.22133 109.268 8.13599L125.268 0.327995L125.908 0.199997C126.164 0.199997 126.42 0.327995 126.676 0.583992C126.932 0.754662 127.06 0.967997 127.06 1.224V67.784L144.212 53.96C146.943 51.8267 148.308 49.9493 148.308 48.328C148.308 46.1947 145.876 45.128 141.012 45.128C140.756 45.128 140.628 44.872 140.628 44.36C140.628 43.848 140.756 43.592 141.012 43.592C143.316 43.592 145.065 43.6347 146.26 43.72L155.604 43.848L164.18 43.72C165.289 43.6347 166.825 43.592 168.788 43.592C169.044 43.592 169.172 43.848 169.172 44.36C169.172 44.872 169.044 45.128 168.788 45.128C165.631 45.128 162.132 45.896 158.292 47.432C154.452 48.968 150.612 51.272 146.772 54.344L139.348 60.232L155.604 82.632C159.871 88.52 164.777 91.464 170.324 91.464ZM215.077 85.832C215.333 85.832 215.546 86.0027 215.717 86.344C215.973 86.6 216.016 86.856 215.845 87.112C210.213 92.0613 203.984 94.536 197.157 94.536C192.208 94.536 187.984 93.384 184.485 91.08C180.986 88.776 178.298 85.7467 176.421 81.992C174.629 78.2373 173.733 74.2267 173.733 69.96C173.733 64.9253 174.928 60.3173 177.317 56.136C179.706 51.8693 182.949 48.5413 187.045 46.152C191.226 43.6773 195.792 42.44 200.741 42.44C205.52 42.44 209.189 43.72 211.749 46.28C214.309 48.84 215.589 52.424 215.589 57.032C215.589 58.2267 215.461 59.08 215.205 59.592C215.034 60.104 214.693 60.36 214.181 60.36L182.437 60.488C182.266 62.3653 182.181 63.9013 182.181 65.096C182.181 72.52 183.93 78.536 187.429 83.144C190.928 87.752 195.834 90.056 202.149 90.056C204.709 90.056 206.885 89.7147 208.677 89.032C210.554 88.3493 212.645 87.2827 214.949 85.832H215.077ZM196.517 45C192.848 45 189.818 46.2373 187.429 48.712C185.04 51.1013 183.461 54.472 182.693 58.824L207.013 58.312C207.013 53.96 206.074 50.6747 204.197 48.456C202.32 46.152 199.76 45 196.517 45ZM261.183 86.344C261.524 86.344 261.78 86.5573 261.951 86.984C262.122 87.3253 262.079 87.5813 261.823 87.752C258.666 90.2267 255.807 91.976 253.247 93C250.772 94.024 248.17 94.536 245.439 94.536C241.855 94.536 238.911 93.7253 236.607 92.104C234.303 90.4827 233.151 87.7947 233.151 84.04V53.96C233.151 51.7413 232.98 50.1627 232.639 49.224C232.383 48.2853 231.828 47.688 230.975 47.432C230.122 47.0907 228.671 46.92 226.623 46.92C226.282 46.92 226.111 46.664 226.111 46.152C226.111 45.5547 226.282 45.256 226.623 45.256C230.036 45.1707 232.81 44.2747 234.943 42.568C237.076 40.776 238.314 38.4293 238.655 35.528C238.655 35.272 238.996 35.144 239.679 35.144C240.276 35.144 240.575 35.272 240.575 35.528V45C244.842 44.9147 250.772 44.488 258.367 43.72C258.538 43.72 258.708 44.0613 258.879 44.744C259.135 45.3413 259.263 46.024 259.263 46.792C259.263 47.4747 259.092 48.2 258.751 48.968C258.495 49.6507 258.196 49.9493 257.855 49.864C253.162 48.6693 247.402 47.9867 240.575 47.816V79.688C240.575 83.1867 241.428 85.7893 243.135 87.496C244.927 89.2027 247.444 90.056 250.687 90.056C254.442 90.056 257.855 88.8613 260.927 86.472L261.183 86.344ZM325.681 91.464C325.937 91.464 326.065 91.72 326.065 92.232C326.065 92.744 325.937 93 325.681 93C323.718 93 322.14 92.9573 320.945 92.872L314.033 92.744L307.121 92.872C305.926 92.9573 304.348 93 302.385 93C302.129 93 302.001 92.744 302.001 92.232C302.001 91.72 302.129 91.464 302.385 91.464C304.689 91.464 306.396 91.2507 307.505 90.824C308.614 90.312 309.382 89.4587 309.809 88.264C310.236 86.984 310.449 85.1067 310.449 82.632V62.28C310.449 57.2453 309.468 53.5333 307.505 51.144C305.628 48.6693 302.684 47.432 298.673 47.432C296.028 47.432 293.34 48.1573 290.609 49.608C287.878 50.9733 285.404 52.8933 283.185 55.368V82.632C283.185 85.1067 283.398 86.984 283.825 88.264C284.252 89.4587 285.02 90.312 286.129 90.824C287.238 91.2507 288.945 91.464 291.249 91.464C291.505 91.464 291.633 91.72 291.633 92.232C291.633 92.744 291.505 93 291.249 93C289.286 93 287.708 92.9573 286.513 92.872L279.601 92.744L272.689 92.872C271.494 92.9573 269.916 93 267.953 93C267.697 93 267.569 92.744 267.569 92.232C267.569 91.72 267.697 91.464 267.953 91.464C270.257 91.464 271.964 91.2507 273.073 90.824C274.182 90.312 274.95 89.4587 275.377 88.264C275.804 86.984 276.017 85.1067 276.017 82.632V16.456C276.017 13.384 275.718 11.1653 275.121 9.8C274.524 8.43466 273.457 7.752 271.921 7.752C270.641 7.752 268.678 8.34933 266.033 9.544H265.777C265.521 9.544 265.308 9.33067 265.137 8.904C264.966 8.47733 265.052 8.22133 265.393 8.13599L281.649 0.199997H282.033C282.374 0.199997 282.63 0.327995 282.801 0.583992C283.057 0.754662 283.185 0.967997 283.185 1.224V53.192C286.428 49.4373 289.628 46.7067 292.785 45C296.028 43.208 299.398 42.312 302.897 42.312C307.59 42.312 311.217 43.6347 313.777 46.28C316.337 48.9253 317.617 52.7653 317.617 57.8V82.632C317.617 85.1067 317.83 86.984 318.257 88.264C318.684 89.4587 319.452 90.312 320.561 90.824C321.67 91.2507 323.377 91.464 325.681 91.464ZM445.924 91.464C446.095 91.464 446.18 91.72 446.18 92.232C446.18 92.744 446.095 93 445.924 93H429.412C427.279 93 423.268 89.4587 417.38 82.376C411.492 75.2933 404.495 65.5653 396.388 53.192C394.084 53.704 391.695 53.96 389.22 53.96C388.708 53.96 386.788 53.832 383.46 53.576V82.632C383.46 85.2773 383.716 87.1973 384.228 88.392C384.74 89.5867 385.721 90.3973 387.172 90.824C388.708 91.2507 391.097 91.464 394.34 91.464C394.596 91.464 394.724 91.72 394.724 92.232C394.724 92.744 394.596 93 394.34 93C391.695 93 389.604 92.9573 388.068 92.872L379.236 92.744L370.532 92.872C368.996 92.9573 366.82 93 364.004 93C363.833 93 363.748 92.744 363.748 92.232C363.748 91.72 363.833 91.464 364.004 91.464C367.247 91.464 369.636 91.2507 371.172 90.824C372.708 90.3973 373.732 89.5867 374.244 88.392C374.841 87.112 375.14 85.192 375.14 82.632V23.368C375.14 20.808 374.884 18.9307 374.372 17.736C373.86 16.5413 372.836 15.7307 371.3 15.304C369.849 14.792 367.503 14.536 364.26 14.536C364.004 14.536 363.876 14.28 363.876 13.768C363.876 13.256 364.004 13 364.26 13L370.532 13.128C374.116 13.2987 377.017 13.384 379.236 13.384C381.113 13.384 382.863 13.3413 384.484 13.256C386.105 13.1707 387.471 13.0853 388.58 13C391.737 12.744 394.596 12.616 397.156 12.616C403.897 12.616 409.103 14.152 412.772 17.224C416.441 20.296 418.276 24.392 418.276 29.512C418.276 34.12 416.911 38.3013 414.18 42.056C411.535 45.7253 407.993 48.6267 403.556 50.76C410.724 61.0853 416.74 69.192 421.604 75.08C426.553 80.8827 430.905 85.064 434.66 87.624C438.5 90.184 442.255 91.464 445.924 91.464ZM383.46 50.504C385.593 50.8453 388.111 51.016 391.012 51.016C397.668 51.016 402.404 49.5653 405.22 46.664C408.121 43.7627 409.572 39.2827 409.572 33.224C409.572 26.568 408.079 21.7893 405.092 18.888C402.191 15.9867 397.924 14.536 392.292 14.536C388.964 14.536 386.66 15.1333 385.38 16.328C384.1 17.5227 383.46 19.9547 383.46 23.624V50.504ZM497.745 86.088C498.086 86.088 498.3 86.3013 498.385 86.728C498.47 87.0693 498.342 87.3253 498.001 87.496L484.817 93.768C484.476 93.9387 484.134 94.024 483.793 94.024C482.684 94.024 481.702 93.2987 480.849 91.848C479.996 90.312 479.441 88.264 479.185 85.704L472.529 90.056C470.396 91.4213 468.518 92.4027 466.897 93C465.276 93.5973 463.569 93.896 461.777 93.896C458.62 93.896 456.145 93.0853 454.353 91.464C452.646 89.7573 451.793 87.624 451.793 85.064C451.793 82.504 452.817 80.2853 454.865 78.408C456.913 76.5307 460.284 74.7387 464.977 73.032L479.057 67.784V59.08C479.057 49.5227 476.369 44.744 470.993 44.744C468.092 44.744 465.873 45.7253 464.337 47.688C462.886 49.5653 461.905 51.7413 461.393 54.216C461.137 55.752 460.668 57.032 459.985 58.056C459.302 58.9947 458.15 59.464 456.529 59.464C455.164 59.464 454.097 59.08 453.329 58.312C452.646 57.544 452.305 56.648 452.305 55.624C452.305 53.576 453.628 51.528 456.273 49.48C458.918 47.432 462.076 45.7253 465.745 44.36C469.414 42.9947 472.7 42.312 475.601 42.312C479.1 42.312 481.745 43.4213 483.537 45.64C485.329 47.8587 486.225 51.0587 486.225 55.24V79.176C486.225 82.1627 486.609 84.3387 487.377 85.704C488.145 87.0693 489.425 87.752 491.217 87.752C492.838 87.752 494.929 87.1973 497.489 86.088H497.745ZM479.057 83.912V83.272V69.576L467.153 74.184C464.764 75.1227 463.014 76.232 461.905 77.512C460.881 78.7067 460.369 80.1573 460.369 81.864C460.369 83.912 461.009 85.6613 462.289 87.112C463.654 88.4773 465.404 89.16 467.537 89.16C469.244 89.16 471.292 88.4773 473.681 87.112L479.057 83.912ZM593.226 91.464C593.567 91.464 593.738 91.72 593.738 92.232C593.738 92.744 593.567 93 593.226 93C591.263 93 589.685 92.9573 588.49 92.872L581.578 92.744L574.666 92.872C573.471 92.9573 571.893 93 569.93 93C569.674 93 569.546 92.744 569.546 92.232C569.546 91.72 569.674 91.464 569.93 91.464C572.234 91.464 573.941 91.2507 575.05 90.824C576.159 90.312 576.927 89.4587 577.354 88.264C577.781 86.984 577.994 85.1067 577.994 82.632V62.28C577.994 57.2453 577.098 53.5333 575.306 51.144C573.514 48.6693 570.741 47.432 566.986 47.432C564.426 47.432 561.823 48.1573 559.178 49.608C556.618 50.9733 554.229 52.936 552.01 55.496C552.095 55.9227 552.138 56.6053 552.138 57.544V82.632C552.138 85.192 552.351 87.0693 552.778 88.264C553.205 89.4587 553.973 90.312 555.082 90.824C556.191 91.2507 557.898 91.464 560.202 91.464C560.458 91.464 560.586 91.72 560.586 92.232C560.586 92.744 560.458 93 560.202 93C558.239 93 556.661 92.9573 555.466 92.872L548.554 92.744L541.514 92.872C540.405 92.9573 538.869 93 536.906 93C536.65 93 536.522 92.744 536.522 92.232C536.522 91.72 536.65 91.464 536.906 91.464C539.21 91.464 540.917 91.2507 542.026 90.824C543.135 90.312 543.861 89.4587 544.202 88.264C544.629 87.0693 544.842 85.192 544.842 82.632V62.28C544.842 57.2453 543.946 53.5333 542.154 51.144C540.362 48.6693 537.631 47.432 533.962 47.432C531.402 47.432 528.842 48.1147 526.282 49.48C523.722 50.8453 521.375 52.7653 519.242 55.24V82.632C519.242 85.192 519.413 87.0693 519.754 88.264C520.181 89.4587 520.949 90.312 522.058 90.824C523.167 91.2507 524.874 91.464 527.178 91.464C527.434 91.464 527.562 91.72 527.562 92.232C527.562 92.744 527.434 93 527.178 93C525.215 93 523.679 92.9573 522.57 92.872L515.658 92.744L508.618 92.872C507.509 92.9573 505.973 93 504.01 93C503.754 93 503.626 92.744 503.626 92.232C503.626 91.72 503.754 91.464 504.01 91.464C506.314 91.464 508.021 91.2507 509.13 90.824C510.239 90.312 510.965 89.4587 511.306 88.264C511.733 87.0693 511.946 85.192 511.946 82.632V57.288C511.946 54.3867 511.605 52.296 510.922 51.016C510.239 49.736 509.087 49.096 507.466 49.096C506.101 49.096 503.797 49.736 500.554 51.016H500.298C499.957 51.016 499.701 50.8453 499.53 50.504C499.445 50.0773 499.573 49.7787 499.914 49.608L514.762 42.568L515.53 42.44C516.298 42.44 517.109 43.4213 517.962 45.384C518.815 47.3467 519.242 49.864 519.242 52.936V53.064C522.314 49.3093 525.386 46.5787 528.458 44.872C531.53 43.1653 534.73 42.312 538.058 42.312C541.898 42.312 545.013 43.2507 547.402 45.128C549.791 47.0053 551.285 49.8213 551.882 53.576C555.039 49.736 558.197 46.92 561.354 45.128C564.511 43.2507 567.797 42.312 571.21 42.312C575.733 42.312 579.189 43.6347 581.578 46.28C584.053 48.84 585.29 52.68 585.29 57.8V82.632C585.29 85.192 585.461 87.0693 585.802 88.264C586.229 89.4587 586.997 90.312 588.106 90.824C589.215 91.2507 590.922 91.464 593.226 91.464ZM668.371 47.944C675.112 48.456 680.531 50.7173 684.627 54.728C688.808 58.6533 690.899 63.56 690.899 69.448C690.899 73.9707 689.79 78.0667 687.571 81.736C685.352 85.4053 682.28 88.3067 678.355 90.44C674.515 92.488 670.206 93.512 665.427 93.512C662.611 93.512 659.539 93.384 656.211 93.128C655.016 93.0427 653.608 92.9573 651.987 92.872C650.366 92.7867 648.574 92.744 646.611 92.744L637.907 92.872C636.371 92.9573 634.195 93 631.379 93C631.208 93 631.123 92.744 631.123 92.232C631.123 91.72 631.208 91.464 631.379 91.464C634.536 91.464 636.883 91.2507 638.419 90.824C639.955 90.312 641.022 89.4587 641.619 88.264C642.216 87.0693 642.515 85.192 642.515 82.632V23.368C642.515 20.808 642.216 18.9307 641.619 17.736C641.107 16.5413 640.083 15.7307 638.547 15.304C637.096 14.792 634.792 14.536 631.635 14.536C631.379 14.536 631.251 14.28 631.251 13.768C631.251 13.256 631.379 13 631.635 13L637.907 13.128C641.491 13.2987 644.392 13.384 646.611 13.384C648.147 13.384 649.555 13.3413 650.835 13.256C652.2 13.1707 653.352 13.0853 654.291 13C656.936 12.744 659.411 12.616 661.715 12.616C668.883 12.616 674.259 14.1947 677.843 17.352C681.427 20.424 683.219 24.4773 683.219 29.512C683.219 33.608 681.896 37.2773 679.251 40.52C676.606 43.6773 672.979 46.152 668.371 47.944ZM659.027 14.536C656.808 14.536 655.144 14.7493 654.035 15.176C652.926 15.5173 652.115 16.328 651.603 17.608C651.091 18.8027 650.835 20.808 650.835 23.624V47.944L656.595 48.072C662.824 48.072 667.432 46.4933 670.419 43.336C673.406 40.0933 674.899 35.8267 674.899 30.536C674.899 25.7573 673.576 21.9173 670.931 19.016C668.371 16.0293 664.403 14.536 659.027 14.536ZM663.507 91.208C669.736 91.208 674.344 89.6293 677.331 86.472C680.403 83.2293 681.939 78.6213 681.939 72.648C681.939 66.1627 680.019 60.9147 676.179 56.904C672.424 52.8933 667.219 50.8453 660.563 50.76C657.832 50.6747 654.59 50.76 650.835 51.016V82.632C650.835 84.8507 651.134 86.5573 651.731 87.752C652.414 88.9467 653.651 89.8427 655.443 90.44C657.32 90.952 660.008 91.208 663.507 91.208ZM714.786 27.464C712.994 27.464 711.586 26.9947 710.562 26.056C709.623 25.1173 709.154 23.7947 709.154 22.088C709.154 20.3813 709.623 19.0587 710.562 18.12C711.586 17.1813 712.994 16.712 714.786 16.712C716.493 16.712 717.815 17.1813 718.754 18.12C719.693 19.0587 720.162 20.3813 720.162 22.088C720.162 23.7947 719.693 25.1173 718.754 26.056C717.815 26.9947 716.493 27.464 714.786 27.464ZM704.034 93C703.863 93 703.778 92.744 703.778 92.232C703.778 91.72 703.863 91.464 704.034 91.464C706.338 91.464 708.045 91.2507 709.154 90.824C710.349 90.312 711.159 89.4587 711.586 88.264C712.013 86.984 712.226 85.1067 712.226 82.632V58.696C712.226 55.624 711.885 53.4053 711.202 52.04C710.605 50.6747 709.538 49.992 708.002 49.992C706.466 49.992 704.546 50.5893 702.242 51.784H702.114C701.773 51.784 701.517 51.5707 701.346 51.144C701.175 50.7173 701.218 50.4187 701.474 50.248L718.114 42.568L718.626 42.44C718.797 42.44 719.01 42.568 719.266 42.824C719.522 42.9947 719.65 43.208 719.65 43.464C719.65 44.0613 719.607 45.768 719.522 48.584C719.437 51.4 719.394 54.728 719.394 58.568V82.632C719.394 85.192 719.607 87.0693 720.034 88.264C720.461 89.4587 721.229 90.312 722.338 90.824C723.447 91.2507 725.154 91.464 727.458 91.464C727.714 91.464 727.842 91.72 727.842 92.232C727.842 92.744 727.714 93 727.458 93C725.495 93 723.917 92.9573 722.722 92.872L715.81 92.744L708.898 92.872C707.703 92.9573 706.082 93 704.034 93ZM737.37 93C737.114 93 736.986 92.744 736.986 92.232C736.986 91.72 737.114 91.464 737.37 91.464C739.674 91.464 741.381 91.2507 742.49 90.824C743.599 90.312 744.367 89.4587 744.794 88.264C745.221 86.984 745.434 85.1067 745.434 82.632V16.456C745.434 13.384 745.135 11.1653 744.538 9.8C743.941 8.43466 742.874 7.752 741.338 7.752C740.058 7.752 738.095 8.34933 735.45 9.544H735.194C734.938 9.544 734.725 9.33067 734.554 8.904C734.469 8.47733 734.554 8.22133 734.81 8.13599L751.194 0.327995C751.365 0.242663 751.578 0.199997 751.834 0.199997C752.005 0.199997 752.218 0.327995 752.474 0.583992C752.815 0.754662 752.986 0.967997 752.986 1.224V82.632C752.986 85.1067 753.157 86.9413 753.498 88.136C753.925 89.3307 754.693 90.184 755.802 90.696C756.911 91.208 758.618 91.464 760.922 91.464C761.178 91.464 761.306 91.72 761.306 92.232C761.306 92.744 761.178 93 760.922 93C759.045 93 757.509 92.9573 756.314 92.872L749.146 92.744L742.234 92.872C741.039 92.9573 739.418 93 737.37 93ZM770.37 93C770.114 93 769.986 92.744 769.986 92.232C769.986 91.72 770.114 91.464 770.37 91.464C772.674 91.464 774.381 91.2507 775.49 90.824C776.599 90.312 777.367 89.4587 777.794 88.264C778.221 86.984 778.434 85.1067 778.434 82.632V16.456C778.434 13.384 778.135 11.1653 777.538 9.8C776.941 8.43466 775.874 7.752 774.338 7.752C773.058 7.752 771.095 8.34933 768.45 9.544H768.194C767.938 9.544 767.725 9.33067 767.554 8.904C767.469 8.47733 767.554 8.22133 767.81 8.13599L784.194 0.327995C784.365 0.242663 784.578 0.199997 784.834 0.199997C785.005 0.199997 785.218 0.327995 785.474 0.583992C785.815 0.754662 785.986 0.967997 785.986 1.224V82.632C785.986 85.1067 786.157 86.9413 786.498 88.136C786.925 89.3307 787.693 90.184 788.802 90.696C789.911 91.208 791.618 91.464 793.922 91.464C794.178 91.464 794.306 91.72 794.306 92.232C794.306 92.744 794.178 93 793.922 93C792.045 93 790.509 92.9573 789.314 92.872L782.146 92.744L775.234 92.872C774.039 92.9573 772.418 93 770.37 93ZM851.37 86.088C851.711 86.088 851.925 86.3013 852.01 86.728C852.095 87.0693 851.967 87.3253 851.626 87.496L838.442 93.768C838.101 93.9387 837.759 94.024 837.418 94.024C836.309 94.024 835.327 93.2987 834.474 91.848C833.621 90.312 833.066 88.264 832.81 85.704L826.154 90.056C824.021 91.4213 822.143 92.4027 820.522 93C818.901 93.5973 817.194 93.896 815.402 93.896C812.245 93.896 809.77 93.0853 807.978 91.464C806.271 89.7573 805.418 87.624 805.418 85.064C805.418 82.504 806.442 80.2853 808.49 78.408C810.538 76.5307 813.909 74.7387 818.602 73.032L832.682 67.784V59.08C832.682 49.5227 829.994 44.744 824.618 44.744C821.717 44.744 819.498 45.7253 817.962 47.688C816.511 49.5653 815.53 51.7413 815.018 54.216C814.762 55.752 814.293 57.032 813.61 58.056C812.927 58.9947 811.775 59.464 810.154 59.464C808.789 59.464 807.722 59.08 806.954 58.312C806.271 57.544 805.93 56.648 805.93 55.624C805.93 53.576 807.253 51.528 809.898 49.48C812.543 47.432 815.701 45.7253 819.37 44.36C823.039 42.9947 826.325 42.312 829.226 42.312C832.725 42.312 835.37 43.4213 837.162 45.64C838.954 47.8587 839.85 51.0587 839.85 55.24V79.176C839.85 82.1627 840.234 84.3387 841.002 85.704C841.77 87.0693 843.05 87.752 844.842 87.752C846.463 87.752 848.554 87.1973 851.114 86.088H851.37ZM832.682 83.912V83.272V69.576L820.778 74.184C818.389 75.1227 816.639 76.232 815.53 77.512C814.506 78.7067 813.994 80.1573 813.994 81.864C813.994 83.912 814.634 85.6613 815.914 87.112C817.279 88.4773 819.029 89.16 821.162 89.16C822.869 89.16 824.917 88.4773 827.306 87.112L832.682 83.912Z" fill="white"/>
</svg>
